<svg width="1439" height="63" viewBox="0 0 1439 63" fill="none" xmlns="http://www.w3.org/2000/svg">
<rect width="1439" height="63" fill="white"/>
<path d="M148.35 31.675C148.267 31.8083 148.179 31.9042 148.088 31.9625C147.996 32.0125 147.879 32.0375 147.738 32.0375C147.588 32.0375 147.425 31.9958 147.25 31.9125C147.083 31.8292 146.888 31.7375 146.663 31.6375C146.438 31.5292 146.179 31.4333 145.887 31.35C145.604 31.2667 145.267 31.225 144.875 31.225C144.267 31.225 143.788 31.3542 143.438 31.6125C143.096 31.8708 142.925 32.2083 142.925 32.625C142.925 32.9 143.013 33.1333 143.188 33.325C143.371 33.5083 143.608 33.6708 143.9 33.8125C144.2 33.9542 144.538 34.0833 144.913 34.2C145.288 34.3083 145.667 34.4292 146.05 34.5625C146.442 34.6958 146.825 34.85 147.2 35.025C147.575 35.1917 147.908 35.4083 148.2 35.675C148.5 35.9333 148.738 36.2458 148.913 36.6125C149.096 36.9792 149.188 37.4208 149.188 37.9375C149.188 38.5542 149.075 39.125 148.85 39.65C148.633 40.1667 148.308 40.6167 147.875 41C147.442 41.375 146.904 41.6708 146.263 41.8875C145.629 42.0958 144.896 42.2 144.063 42.2C143.621 42.2 143.188 42.1583 142.763 42.075C142.346 42 141.942 41.8917 141.55 41.75C141.167 41.6083 140.808 41.4417 140.475 41.25C140.15 41.0583 139.863 40.85 139.613 40.625L140.325 39.45C140.417 39.3083 140.525 39.2 140.65 39.125C140.775 39.05 140.933 39.0125 141.125 39.0125C141.317 39.0125 141.496 39.0667 141.663 39.175C141.838 39.2833 142.038 39.4 142.263 39.525C142.488 39.65 142.75 39.7667 143.05 39.875C143.358 39.9833 143.746 40.0375 144.213 40.0375C144.579 40.0375 144.892 39.9958 145.15 39.9125C145.417 39.8208 145.633 39.7042 145.8 39.5625C145.975 39.4208 146.1 39.2583 146.175 39.075C146.258 38.8833 146.3 38.6875 146.3 38.4875C146.3 38.1875 146.208 37.9417 146.025 37.75C145.85 37.5583 145.613 37.3917 145.312 37.25C145.021 37.1083 144.683 36.9833 144.3 36.875C143.925 36.7583 143.538 36.6333 143.138 36.5C142.746 36.3667 142.358 36.2125 141.975 36.0375C141.6 35.8542 141.263 35.625 140.963 35.35C140.671 35.075 140.433 34.7375 140.25 34.3375C140.075 33.9375 139.988 33.4542 139.988 32.8875C139.988 32.3625 140.092 31.8625 140.3 31.3875C140.508 30.9125 140.813 30.5 141.213 30.15C141.621 29.7917 142.125 29.5083 142.725 29.3C143.333 29.0833 144.033 28.975 144.825 28.975C145.708 28.975 146.513 29.1208 147.238 29.4125C147.963 29.7042 148.567 30.0875 149.05 30.5625L148.35 31.675ZM169.824 29.175L165.749 42H163.274C162.99 42 162.795 41.8167 162.686 41.45L160.386 34.0375C160.311 33.7875 160.24 33.5417 160.174 33.3C160.115 33.05 160.065 32.8 160.024 32.55C159.974 32.8 159.915 33.0542 159.849 33.3125C159.79 33.5625 159.724 33.8125 159.649 34.0625L157.311 41.45C157.211 41.8167 156.99 42 156.649 42H154.274L150.211 29.175H152.674C152.899 29.175 153.09 29.2292 153.249 29.3375C153.407 29.4458 153.511 29.5833 153.561 29.75L155.399 36.6C155.49 36.975 155.57 37.3417 155.636 37.7C155.711 38.0583 155.774 38.4167 155.824 38.775C155.915 38.4167 156.011 38.0583 156.111 37.7C156.22 37.3417 156.332 36.975 156.449 36.6L158.574 29.725C158.624 29.5583 158.72 29.4208 158.861 29.3125C159.011 29.2042 159.19 29.15 159.399 29.15H160.761C160.978 29.15 161.161 29.2042 161.311 29.3125C161.47 29.4208 161.574 29.5583 161.624 29.725L163.686 36.6C163.795 36.975 163.895 37.3458 163.986 37.7125C164.086 38.0708 164.182 38.4292 164.274 38.7875C164.382 38.0792 164.536 37.35 164.736 36.6L166.624 29.75C166.682 29.5833 166.786 29.4458 166.936 29.3375C167.086 29.2292 167.265 29.175 167.474 29.175H169.824ZM178.184 36.525C177.292 36.5667 176.542 36.6458 175.934 36.7625C175.325 36.8708 174.838 37.0125 174.471 37.1875C174.105 37.3625 173.842 37.5667 173.684 37.8C173.525 38.0333 173.446 38.2875 173.446 38.5625C173.446 39.1042 173.605 39.4917 173.921 39.725C174.246 39.9583 174.667 40.075 175.184 40.075C175.817 40.075 176.363 39.9625 176.821 39.7375C177.288 39.5042 177.742 39.1542 178.184 38.6875V36.525ZM171.109 30.9625C172.584 29.6125 174.359 28.9375 176.434 28.9375C177.184 28.9375 177.855 29.0625 178.446 29.3125C179.038 29.5542 179.538 29.8958 179.946 30.3375C180.355 30.7708 180.663 31.2917 180.871 31.9C181.088 32.5083 181.196 33.175 181.196 33.9V42H179.796C179.505 42 179.28 41.9583 179.121 41.875C178.963 41.7833 178.838 41.6042 178.746 41.3375L178.471 40.4125C178.146 40.7042 177.83 40.9625 177.521 41.1875C177.213 41.4042 176.892 41.5875 176.559 41.7375C176.225 41.8875 175.867 42 175.484 42.075C175.109 42.1583 174.692 42.2 174.234 42.2C173.692 42.2 173.192 42.1292 172.734 41.9875C172.275 41.8375 171.88 41.6167 171.546 41.325C171.213 41.0333 170.955 40.6708 170.771 40.2375C170.588 39.8042 170.496 39.3 170.496 38.725C170.496 38.4 170.55 38.0792 170.659 37.7625C170.767 37.4375 170.942 37.1292 171.184 36.8375C171.434 36.5458 171.755 36.2708 172.146 36.0125C172.538 35.7542 173.017 35.5292 173.584 35.3375C174.159 35.1458 174.825 34.9917 175.584 34.875C176.342 34.75 177.209 34.675 178.184 34.65V33.9C178.184 33.0417 178 32.4083 177.634 32C177.267 31.5833 176.738 31.375 176.046 31.375C175.546 31.375 175.13 31.4333 174.796 31.55C174.471 31.6667 174.184 31.8 173.934 31.95C173.684 32.0917 173.455 32.2208 173.246 32.3375C173.046 32.4542 172.821 32.5125 172.571 32.5125C172.355 32.5125 172.171 32.4583 172.021 32.35C171.871 32.2333 171.75 32.1 171.659 31.95L171.109 30.9625ZM187.192 38.675C187.542 39.1 187.921 39.4 188.329 39.575C188.746 39.75 189.196 39.8375 189.679 39.8375C190.146 39.8375 190.567 39.75 190.942 39.575C191.317 39.4 191.633 39.1333 191.892 38.775C192.158 38.4167 192.362 37.9667 192.504 37.425C192.646 36.875 192.717 36.2292 192.717 35.4875C192.717 34.7375 192.654 34.1042 192.529 33.5875C192.412 33.0625 192.242 32.6375 192.017 32.3125C191.792 31.9875 191.517 31.75 191.192 31.6C190.875 31.45 190.512 31.375 190.104 31.375C189.462 31.375 188.917 31.5125 188.467 31.7875C188.017 32.0542 187.592 32.4333 187.192 32.925V38.675ZM187.029 30.925C187.554 30.3333 188.15 29.8542 188.817 29.4875C189.483 29.1208 190.267 28.9375 191.167 28.9375C191.867 28.9375 192.504 29.0833 193.079 29.375C193.662 29.6667 194.162 30.0917 194.579 30.65C195.004 31.2 195.329 31.8833 195.554 32.7C195.787 33.5083 195.904 34.4375 195.904 35.4875C195.904 36.4458 195.775 37.3333 195.517 38.15C195.258 38.9667 194.887 39.675 194.404 40.275C193.929 40.875 193.35 41.3458 192.667 41.6875C191.992 42.0208 191.233 42.1875 190.392 42.1875C189.675 42.1875 189.062 42.0792 188.554 41.8625C188.046 41.6375 187.592 41.3292 187.192 40.9375V46.1875H184.104V29.175H185.992C186.392 29.175 186.654 29.3625 186.779 29.7375L187.029 30.925Z" fill="black"/>
<rect x="1219.5" y="10.5" width="123" height="43" rx="9.5" fill="#FFFF00" stroke="#FFFF00"/>
<path d="M1258.08 27.2525V38H1257.35C1257.24 38 1257.14 37.98 1257.06 37.94C1256.99 37.9 1256.91 37.8325 1256.84 37.7375L1250.62 29.6375C1250.63 29.7625 1250.64 29.885 1250.64 30.005C1250.65 30.125 1250.65 30.2375 1250.65 30.3425V38H1249.37V27.2525H1250.12C1250.19 27.2525 1250.24 27.2575 1250.29 27.2675C1250.33 27.2725 1250.37 27.285 1250.41 27.305C1250.44 27.32 1250.48 27.345 1250.51 27.38C1250.55 27.41 1250.59 27.45 1250.63 27.5L1256.84 35.5925C1256.83 35.4625 1256.82 35.3375 1256.81 35.2175C1256.81 35.0925 1256.81 34.975 1256.81 34.865V27.2525H1258.08ZM1263.48 30.2825C1264.04 30.2825 1264.54 30.375 1264.98 30.56C1265.43 30.745 1265.81 31.0075 1266.12 31.3475C1266.44 31.6875 1266.68 32.1 1266.84 32.585C1267.01 33.065 1267.1 33.6025 1267.1 34.1975C1267.1 34.7975 1267.01 35.3375 1266.84 35.8175C1266.68 36.2975 1266.44 36.7075 1266.12 37.0475C1265.81 37.3875 1265.43 37.65 1264.98 37.835C1264.54 38.015 1264.04 38.105 1263.48 38.105C1262.92 38.105 1262.42 38.015 1261.97 37.835C1261.52 37.65 1261.14 37.3875 1260.83 37.0475C1260.51 36.7075 1260.27 36.2975 1260.1 35.8175C1259.93 35.3375 1259.85 34.7975 1259.85 34.1975C1259.85 33.6025 1259.93 33.065 1260.1 32.585C1260.27 32.1 1260.51 31.6875 1260.83 31.3475C1261.14 31.0075 1261.52 30.745 1261.97 30.56C1262.42 30.375 1262.92 30.2825 1263.48 30.2825ZM1263.48 37.0625C1264.23 37.0625 1264.79 36.8125 1265.16 36.3125C1265.53 35.8075 1265.72 35.105 1265.72 34.205C1265.72 33.3 1265.53 32.595 1265.16 32.09C1264.79 31.585 1264.23 31.3325 1263.48 31.3325C1263.1 31.3325 1262.77 31.3975 1262.48 31.5275C1262.2 31.6575 1261.97 31.845 1261.78 32.09C1261.59 32.335 1261.45 32.6375 1261.36 32.9975C1261.27 33.3525 1261.22 33.755 1261.22 34.205C1261.22 35.105 1261.41 35.8075 1261.78 36.3125C1262.15 36.8125 1262.72 37.0625 1263.48 37.0625ZM1275.71 38H1274.37V31.52H1270.46V36.08C1270.46 36.4 1270.53 36.6375 1270.69 36.7925C1270.84 36.9475 1271.04 37.025 1271.29 37.025C1271.43 37.025 1271.55 37.0075 1271.65 36.9725C1271.75 36.9325 1271.84 36.89 1271.92 36.845C1271.99 36.8 1272.06 36.76 1272.11 36.725C1272.16 36.685 1272.21 36.665 1272.25 36.665C1272.32 36.665 1272.38 36.7075 1272.44 36.7925L1272.83 37.43C1272.6 37.645 1272.32 37.815 1271.99 37.94C1271.67 38.06 1271.33 38.12 1270.99 38.12C1270.39 38.12 1269.93 37.9525 1269.6 37.6175C1269.28 37.2825 1269.12 36.8 1269.12 36.17V31.52H1268.21C1268.13 31.52 1268.06 31.4975 1268 31.4525C1267.95 31.4025 1267.92 31.3275 1267.92 31.2275V30.695L1269.17 30.53L1269.47 28.19C1269.49 28.115 1269.52 28.055 1269.57 28.01C1269.63 27.96 1269.7 27.935 1269.78 27.935H1270.46V30.5525H1275.71V38ZM1276.04 27.965C1276.04 28.095 1276.01 28.2175 1275.95 28.3325C1275.9 28.4425 1275.83 28.54 1275.74 28.625C1275.66 28.71 1275.56 28.7775 1275.44 28.8275C1275.33 28.8775 1275.21 28.9025 1275.08 28.9025C1274.95 28.9025 1274.82 28.8775 1274.71 28.8275C1274.6 28.7775 1274.5 28.71 1274.42 28.625C1274.33 28.54 1274.26 28.4425 1274.21 28.3325C1274.16 28.2175 1274.14 28.095 1274.14 27.965C1274.14 27.835 1274.16 27.7125 1274.21 27.5975C1274.26 27.4775 1274.33 27.375 1274.42 27.29C1274.5 27.2 1274.6 27.13 1274.71 27.08C1274.82 27.03 1274.95 27.005 1275.08 27.005C1275.21 27.005 1275.33 27.03 1275.44 27.08C1275.56 27.13 1275.66 27.2 1275.74 27.29C1275.83 27.375 1275.9 27.4775 1275.95 27.5975C1276.01 27.7125 1276.04 27.835 1276.04 27.965ZM1278.4 38V31.5425L1277.56 31.445C1277.45 31.42 1277.36 31.3825 1277.29 31.3325C1277.23 31.2775 1277.2 31.2 1277.2 31.1V30.5525H1278.4V29.8175C1278.4 29.3825 1278.46 28.9975 1278.58 28.6625C1278.7 28.3225 1278.88 28.0375 1279.1 27.8075C1279.33 27.5725 1279.61 27.395 1279.93 27.275C1280.25 27.155 1280.61 27.095 1281.01 27.095C1281.35 27.095 1281.66 27.145 1281.94 27.245L1281.91 27.9125C1281.9 28.0325 1281.84 28.0975 1281.71 28.1075C1281.59 28.1175 1281.43 28.1225 1281.22 28.1225C1280.99 28.1225 1280.78 28.1525 1280.59 28.2125C1280.41 28.2725 1280.25 28.37 1280.11 28.505C1279.98 28.64 1279.87 28.8175 1279.8 29.0375C1279.73 29.2575 1279.69 29.53 1279.69 29.855V30.5525H1281.88V31.52H1279.74V38H1278.4ZM1289.71 30.4025L1285.48 40.2425C1285.43 40.3425 1285.37 40.4225 1285.3 40.4825C1285.24 40.5425 1285.14 40.5725 1285 40.5725H1284.01L1285.39 37.5575L1282.26 30.4025H1283.41C1283.53 30.4025 1283.62 30.4325 1283.68 30.4925C1283.75 30.5475 1283.8 30.61 1283.83 30.68L1285.86 35.465C1285.94 35.675 1286.01 35.895 1286.06 36.125C1286.13 35.89 1286.21 35.6675 1286.29 35.4575L1288.26 30.68C1288.29 30.6 1288.34 30.535 1288.41 30.485C1288.48 30.43 1288.57 30.4025 1288.66 30.4025H1289.71ZM1294.37 38V30.4025H1295.17C1295.36 30.4025 1295.48 30.495 1295.52 30.68L1295.62 31.46C1295.9 31.115 1296.21 30.8325 1296.56 30.6125C1296.91 30.3925 1297.32 30.2825 1297.78 30.2825C1298.29 30.2825 1298.7 30.425 1299.02 30.71C1299.34 30.995 1299.57 31.38 1299.71 31.865C1299.82 31.59 1299.96 31.3525 1300.13 31.1525C1300.3 30.9525 1300.5 30.7875 1300.71 30.6575C1300.93 30.5275 1301.15 30.4325 1301.39 30.3725C1301.64 30.3125 1301.89 30.2825 1302.14 30.2825C1302.54 30.2825 1302.89 30.3475 1303.2 30.4775C1303.52 30.6025 1303.78 30.7875 1304 31.0325C1304.22 31.2775 1304.38 31.58 1304.5 31.94C1304.61 32.295 1304.67 32.7025 1304.67 33.1625V38H1303.33V33.1625C1303.33 32.5675 1303.2 32.1175 1302.94 31.8125C1302.68 31.5025 1302.3 31.3475 1301.81 31.3475C1301.59 31.3475 1301.38 31.3875 1301.18 31.4675C1300.99 31.5425 1300.82 31.655 1300.67 31.805C1300.52 31.955 1300.4 32.145 1300.31 32.375C1300.22 32.6 1300.18 32.8625 1300.18 33.1625V38H1298.84V33.1625C1298.84 32.5525 1298.71 32.0975 1298.47 31.7975C1298.22 31.4975 1297.87 31.3475 1297.4 31.3475C1297.07 31.3475 1296.76 31.4375 1296.48 31.6175C1296.2 31.7925 1295.94 32.0325 1295.71 32.3375V38H1294.37ZM1311.78 33.3725C1311.78 33.0625 1311.74 32.78 1311.65 32.525C1311.56 32.265 1311.44 32.0425 1311.27 31.8575C1311.1 31.6675 1310.9 31.5225 1310.66 31.4225C1310.42 31.3175 1310.15 31.265 1309.84 31.265C1309.2 31.265 1308.69 31.4525 1308.32 31.8275C1307.95 32.1975 1307.72 32.7125 1307.63 33.3725H1311.78ZM1312.86 36.935C1312.7 37.135 1312.5 37.31 1312.27 37.46C1312.04 37.605 1311.79 37.725 1311.53 37.82C1311.27 37.915 1311 37.985 1310.72 38.03C1310.44 38.08 1310.16 38.105 1309.89 38.105C1309.36 38.105 1308.88 38.0175 1308.43 37.8425C1307.99 37.6625 1307.61 37.4025 1307.28 37.0625C1306.96 36.7175 1306.71 36.2925 1306.53 35.7875C1306.35 35.2825 1306.26 34.7025 1306.26 34.0475C1306.26 33.5175 1306.34 33.0225 1306.5 32.5625C1306.67 32.1025 1306.9 31.705 1307.21 31.37C1307.51 31.03 1307.89 30.765 1308.33 30.575C1308.77 30.38 1309.26 30.2825 1309.81 30.2825C1310.27 30.2825 1310.69 30.36 1311.07 30.515C1311.46 30.665 1311.8 30.885 1312.08 31.175C1312.36 31.46 1312.58 31.815 1312.74 32.24C1312.9 32.66 1312.98 33.14 1312.98 33.68C1312.98 33.89 1312.96 34.03 1312.92 34.1C1312.87 34.17 1312.79 34.205 1312.66 34.205H1307.58C1307.6 34.685 1307.66 35.1025 1307.78 35.4575C1307.9 35.8125 1308.06 36.11 1308.27 36.35C1308.48 36.585 1308.73 36.7625 1309.02 36.8825C1309.31 36.9975 1309.64 37.055 1310 37.055C1310.33 37.055 1310.62 37.0175 1310.86 36.9425C1311.11 36.8625 1311.32 36.7775 1311.49 36.6875C1311.67 36.5975 1311.81 36.515 1311.93 36.44C1312.05 36.36 1312.15 36.32 1312.23 36.32C1312.34 36.32 1312.43 36.3625 1312.49 36.4475L1312.86 36.935Z" fill="black"/>
</svg>
