<svg width="197" height="507" viewBox="0 0 197 507" fill="none" xmlns="http://www.w3.org/2000/svg">
<path opacity="0.3" d="M195.5 98.5112C142.291 99.3055 99.3055 142.291 98.5112 195.5H195.5V98.5112Z" stroke="white" stroke-width="3"/>
<path opacity="0.3" d="M98.5 309.511C45.2907 310.306 2.30552 353.291 1.51119 406.5H98.5V309.511Z" stroke="white" stroke-width="3"/>
<path opacity="0.3" d="M99.5 406.489C152.709 405.694 195.694 362.709 196.489 309.5H99.5V406.489Z" stroke="white" stroke-width="3"/>
<path opacity="0.3" d="M98.5 1.5H147C173.786 1.5 195.5 23.2142 195.5 50V98.5H147C120.214 98.5 98.5 76.7858 98.5 50V1.5Z" stroke="white" stroke-width="3"/>
<path opacity="0.3" d="M1.5 407.5H50C76.7858 407.5 98.5 429.214 98.5 456V504.5H50C23.2142 504.5 1.5 482.786 1.5 456V407.5Z" stroke="white" stroke-width="3"/>
<circle opacity="0.3" cx="154" cy="254" r="41.5" stroke="white" stroke-width="3"/>
<circle opacity="0.3" cx="154" cy="457" r="48.5" stroke="white" stroke-width="3"/>
<circle opacity="0.3" cx="48" cy="253" r="43.5" stroke="white" stroke-width="3"/>
<circle opacity="0.3" cx="48" cy="253" r="28.5" fill="white" stroke="white" stroke-width="3"/>
<circle opacity="0.3" cx="154" cy="457" r="28.5" fill="white" stroke="white" stroke-width="3"/>
</svg>
