<svg width="700" height="678" viewBox="0 0 700 678" fill="none" xmlns="http://www.w3.org/2000/svg">
<path d="M300 378H350C377.614 378 400 400.386 400 428V478H350C322.386 478 300 455.614 300 428V378Z" fill="#68C3D4"/>
<path d="M343 93C315.386 93 293 70.6142 293 43H343V93Z" fill="#68C3D4"/>
<path d="M462 93C489.614 93 512 70.6142 512 43H462V93Z" fill="#68C3D4"/>
<path d="M400 428C400 400.386 422.386 378 450 378H500V428C500 455.614 477.614 478 450 478H400V428Z" fill="#568EA3"/>
<path d="M700 268C644.772 268 600 312.772 600 368H700V268Z" fill="#68C3D4"/>
<path d="M600 478C544.772 478 500 522.772 500 578H600V478Z" fill="#568EA3"/>
<path d="M600 578C655.228 578 700 533.228 700 478H600V578Z" fill="#FFFF00"/>
<path d="M300 478H350C377.614 478 400 500.386 400 528V578H350C322.386 578 300 555.614 300 528V478Z" fill="#FFFF00"/>
<path d="M600 168H650C677.614 168 700 190.386 700 218V268H650C622.386 268 600 245.614 600 218V168Z" fill="#FFFF00"/>
<path d="M263 182H293C320.614 182 343 204.386 343 232V262H313C285.386 262 263 239.614 263 212V182Z" fill="#568EA3"/>
<path d="M542 182H512C484.386 182 462 204.386 462 232V262H492C519.614 262 542 239.614 542 212V182Z" fill="#568EA3"/>
<path d="M200 378H150C122.386 378 100 400.386 100 428V478H150C177.614 478 200 455.614 200 428V378Z" fill="#568EA3"/>
<path d="M100 478H50C22.3858 478 0 455.614 0 428V378H50C77.6142 378 100 400.386 100 428V478Z" fill="#FFFF00"/>
<path d="M200 578H150C122.386 578 100 600.386 100 628V678H150C177.614 678 200 655.614 200 628V578Z" fill="#568EA3"/>
<path d="M200 478H250C277.614 478 300 500.386 300 528V578H250C222.386 578 200 555.614 200 528V478Z" fill="#68C3D4"/>
<path d="M102 478H52C24.3858 478 2 500.386 2 528V578H52C79.6142 578 102 555.614 102 528V478Z" fill="#68C3D4"/>
<path d="M500 578H550C577.614 578 600 600.386 600 628V678H550C522.386 678 500 655.614 500 628V578Z" fill="#68C3D4"/>
<path d="M200 578H250C277.614 578 300 600.386 300 628V678H250C222.386 678 200 655.614 200 628V578Z" fill="#FFFF00"/>
<path d="M400 678H450C477.614 678 500 655.614 500 628V578H450C422.386 578 400 600.386 400 628V678Z" fill="white"/>
<rect x="300" y="578" width="100" height="100" fill="white"/>
<circle cx="452" cy="528" r="45" fill="#FFFF00"/>
<circle cx="350" cy="628" r="45" fill="#568EA3"/>
<circle cx="656" cy="428" r="43" fill="#FFFF00"/>
<circle cx="400" cy="15" r="15" fill="#FFFF00"/>
<circle cx="400" cy="328" r="50" fill="#FFFF00"/>
<circle cx="400" cy="222" r="40" fill="#68C3D4"/>
<circle cx="400" cy="136" r="30" fill="#FFFF00"/>
<circle cx="250" cy="428" r="43" fill="#FFFF00"/>
<circle cx="656" cy="628" r="50" fill="#FFFF00"/>
<circle cx="550" cy="426" r="45" fill="#68C3D4"/>
<circle cx="150" cy="528" r="45" fill="#FFFF00"/>
<circle cx="550" cy="426" r="30" fill="white"/>
<circle cx="400" cy="15" r="10" fill="white"/>
<circle cx="400" cy="68" r="20" fill="#68C3D4"/>
<circle cx="150" cy="528" r="30" fill="white"/>
<circle cx="452" cy="528" r="30" fill="white"/>
<circle cx="350" cy="628" r="30" fill="white"/>
</svg>
